#!OML:ASF H:\Terrain\Patient Classification 1\Walking\liu\liu.ASF
:FULLY-SPECIFIED
:DEGREES
372
root 9.329240 17.067900 16.087799 6.215480 4.075100 -2.843470
lowerback -6.329301 0.249766 -0.112949
upperback -0.788711 0.260889 3.031138
thorax 2.723545 0.117672 3.209833
lowerneck -21.835110 -6.855970 -13.785970
upperneck 23.487310 -8.851920 13.727340
head 12.393480 -3.556630 5.951627
rclavicle 0.000000 -0.000000
rhumerus -36.823380 19.999870 -92.414413
rradius 48.769600
rwrist -25.250059
rhand -34.398872 -25.847469
rfingers 7.837522
rthumb -5.000050 -58.771793
lclavicle 0.000000 -0.000000
lhumerus -51.327431 -20.050140 107.750061
lradius 31.281801
lwrist 14.067240
lhand -16.682600 -25.061741
lfingers 7.837522
lthumb 12.105170 7.598999
rfemur -14.643420 6.469012 31.747320
rtibia 32.319210
rfoot -20.994381 3.364075
rtoes -17.004129
lfemur -38.412769 6.072297 -19.923641
ltibia 62.141861
lfoot -16.607029 13.226840
ltoes -3.240182
373
root 9.335530 17.071100 16.211201 6.204580 3.722040 -3.124440
lowerback -6.343535 0.466597 0.198455
upperback -0.747517 0.528215 3.067185
thorax 2.762485 0.253397 3.092771
lowerneck -21.984709 -6.871007 -13.701490
upperneck 23.639000 -8.911541 13.776401
head 12.486760 -3.564979 5.950230
rclavicle -0.000000 0.000000
rhumerus -36.239941 20.150789 -92.368431
rradius 48.808430
rwrist -25.577311
rhand -34.419880 -26.168449
rfingers 7.837522
rthumb -5.020301 -59.092442
lclavicle -0.000000 0.000000
lhumerus -51.554691 -19.566580 107.358902
lradius 31.081602
lwrist 13.413620
lhand -16.089701 -24.607111
lfingers 7.837522
lthumb 12.676950 8.022366
rfemur -13.799829 6.783206 32.101082
rtibia 31.626101
rfoot -21.163120 3.474042
rtoes -15.566980
lfemur -39.286610 6.047030 -19.676910
ltibia 60.676884
lfoot -16.420801 12.996941
ltoes -3.564495
374
root 9.340160 17.078699 16.335300 6.158800 3.261220 -3.226030
lowerback -6.168899 0.750960 0.285860
upperback -0.813991 0.906631 3.080385
thorax 2.579291 0.444618 3.082497
lowerneck -22.041580 -6.873680 -13.662110
upperneck 23.978460 -8.911242 13.616020
head 12.614800 -3.576793 5.893349
rclavicle 0.000000 0.000000
rhumerus -35.983753 19.836851 -92.218719
rradius 48.960449
rwrist -25.489420
rhand -34.239151 -26.507471
rfingers 7.837522
rthumb -4.845764 -59.435089
lclavicle 0.000000 0.000000
lhumerus -51.981270 -19.118111 107.196655
lradius 30.860611
lwrist 13.440351
lhand -15.531341 -24.584560
lfingers 7.837522
lthumb 13.215401 8.014083
rfemur -12.818850 7.067324 32.282471
rtibia 30.765240
rfoot -21.463640 3.431879
rtoes -17.318401
lfemur -40.002602 6.097542 -19.738842
ltibia 59.119610
lfoot -16.159330 13.239711
ltoes -6.229905
375
root 9.346940 17.093800 16.462400 6.061770 2.835320 -3.080400
lowerback -6.255480 0.892411 0.039798
upperback -0.713704 1.106083 3.089251
thorax 2.717385 0.540235 3.248531
lowerneck -21.971951 -6.813895 -13.714801
upperneck 24.123550 -8.810748 13.544630
head 12.639331 -3.546191 5.898123
rclavicle -0.000000 -0.000000
rhumerus -35.599407 19.769421 -92.073196
rradius 49.172092
rwrist -25.245331
rhand -34.326271 -26.770481
rfingers 7.837522
rthumb -4.929980 -59.696342
lclavicle -0.000000 -0.000000
lhumerus -52.166290 -18.238001 106.729485
lradius 30.574392
lwrist 12.757690
lhand -15.120160 -24.686199
lfingers 7.837522
lthumb 13.611840 7.888980
rfemur -11.673640 6.900234 32.154430
rtibia 29.833759
rfoot -21.520620 3.652484
rtoes -18.500132
lfemur -40.553593 5.947557 -20.024181
ltibia 57.450031
lfoot -16.372620 13.016191
ltoes -7.303121
